<?xml version="1.0" encoding="UTF-8" standalone="no"?>
<!-- Created with Inkscape (http://www.inkscape.org/) -->

<svg
   xmlns:dc="http://purl.org/dc/elements/1.1/"
   xmlns:cc="http://creativecommons.org/ns#"
   xmlns:rdf="http://www.w3.org/1999/02/22-rdf-syntax-ns#"
   xmlns:svg="http://www.w3.org/2000/svg"
   xmlns="http://www.w3.org/2000/svg"
   xmlns:sodipodi="http://sodipodi.sourceforge.net/DTD/sodipodi-0.dtd"
   xmlns:inkscape="http://www.inkscape.org/namespaces/inkscape"
   width="1026"
   height="1026"
   id="svg2"
   sodipodi:version="0.32"
   inkscape:version="0.48.0 r9654"
   sodipodi:docname="9 petal flower.svg"
   inkscape:output_extension="org.inkscape.output.svg.inkscape"
   version="1.0">
  <defs
     id="defs4">
    <inkscape:perspective
       sodipodi:type="inkscape:persp3d"
       inkscape:vp_x="0 : 526.18109 : 1"
       inkscape:vp_y="0 : 1000 : 0"
       inkscape:vp_z="744.09448 : 526.18109 : 1"
       inkscape:persp3d-origin="372.04724 : 350.78739 : 1"
       id="perspective10" />
    <inkscape:perspective
       id="perspective2823"
       inkscape:persp3d-origin="0.5 : 0.33333333 : 1"
       inkscape:vp_z="1 : 0.5 : 1"
       inkscape:vp_y="0 : 1000 : 0"
       inkscape:vp_x="0 : 0.5 : 1"
       sodipodi:type="inkscape:persp3d" />
    <inkscape:perspective
       id="perspective2845"
       inkscape:persp3d-origin="0.5 : 0.33333333 : 1"
       inkscape:vp_z="1 : 0.5 : 1"
       inkscape:vp_y="0 : 1000 : 0"
       inkscape:vp_x="0 : 0.5 : 1"
       sodipodi:type="inkscape:persp3d" />
  </defs>
  <sodipodi:namedview
     id="base"
     pagecolor="#ffffff"
     bordercolor="#666666"
     borderopacity="1.0"
     gridtolerance="10000"
     guidetolerance="10"
     objecttolerance="10"
     inkscape:pageopacity="0.0"
     inkscape:pageshadow="2"
     inkscape:zoom="1.1175842"
     inkscape:cx="131.92198"
     inkscape:cy="904.40365"
     inkscape:document-units="in"
     inkscape:current-layer="layer1"
     showgrid="false"
     units="in"
     inkscape:window-width="1920"
     inkscape:window-height="1005"
     inkscape:window-x="-9"
     inkscape:window-y="-9"
     inkscape:window-maximized="0" />
  <metadata
     id="metadata7">
    <rdf:RDF>
      <cc:Work
         rdf:about="">
        <dc:format>image/svg+xml</dc:format>
        <dc:type
           rdf:resource="http://purl.org/dc/dcmitype/StillImage" />
        <dc:creator>
          <cc:Agent>
            <dc:title>HeatherM</dc:title>
          </cc:Agent>
        </dc:creator>
        <dc:title></dc:title>
      </cc:Work>
    </rdf:RDF>
  </metadata>
  <g
     inkscape:label="Layer 1"
     inkscape:groupmode="layer"
     id="layer1">
    <path
       style="opacity:0.98000004;fill:#6699cc;fill-opacity:1;fill-rule:nonzero;stroke:none"
       d="m 222.29518,88.800188 c -38.49418,-0.016 -5.62942,59.032722 -7.06643,71.456012 -8.43092,-8.97532 -22.03751,-74.736122 -51.3465,-50.16308 -29.49304,24.72737 33.60529,48.83788 40.50849,59.2813 -12.24212,-1.47276 -64.91135,-43.07882 -71.56669,-5.42326 -6.69973,37.90687 57.15572,15.80458 69.14026,19.37734 -10.3301,6.74001 -77.416,8.73156 -58.31076,41.85364 19.23638,33.34936 53.94727,-24.64938 65.41975,-29.60234 -3.57171,11.79766 -53.69785,56.44668 -17.76822,69.5404 36.17216,13.18208 25.47084,-53.56075 31.07522,-64.73012 4.8506,11.3238 -4.84286,77.76207 31.1008,64.69607 36.18586,-13.1541 -14.92409,-57.41177 -17.80229,-69.56594 10.99523,5.55831 46.27581,62.68949 65.41125,29.57681 19.25931,-33.32717 -48.29809,-34.39877 -58.34482,-41.85366 12.02844,-2.79154 75.72964,18.26646 69.10623,-19.38585 -6.66766,-37.90319 -59.09248,4.68739 -71.59225,5.44882 7.40126,-9.86653 69.75607,-34.68248 40.47442,-59.27281 -29.48178,-24.758352 -42.25994,41.61671 -51.34651,50.19713 -0.69007,-12.2937 31.15576,-71.415052 -7.09195,-71.430462 z"
       id="path2812-1-7"
       sodipodi:nodetypes="ccccccscccccccccccc"
       inkscape:connector-curvature="0" />
  </g>
</svg>
