<?xml version="1.0" encoding="UTF-8" standalone="no"?>
<svg
   xmlns:dc="http://purl.org/dc/elements/1.1/"
   xmlns:cc="http://creativecommons.org/ns#"
   xmlns:rdf="http://www.w3.org/1999/02/22-rdf-syntax-ns#"
   xmlns:svg="http://www.w3.org/2000/svg"
   xmlns="http://www.w3.org/2000/svg"
   xmlns:sodipodi="http://sodipodi.sourceforge.net/DTD/sodipodi-0.dtd"
   xmlns:inkscape="http://www.inkscape.org/namespaces/inkscape"
   version="1.0"
   x="0px"
   y="0px"
   width="1152px"
   height="1152px"
   xml:space="preserve"
   id="svg4425"
   inkscape:version="0.48.0 r9654"
   sodipodi:docname="6 petal flower.svg"><metadata
   id="metadata4435"><rdf:RDF><cc:Work
       rdf:about=""><dc:format>image/svg+xml</dc:format><dc:type
         rdf:resource="http://purl.org/dc/dcmitype/StillImage" /></cc:Work></rdf:RDF></metadata><defs
   id="defs4433" /><sodipodi:namedview
   pagecolor="#ffffff"
   bordercolor="#666666"
   borderopacity="1"
   objecttolerance="10"
   gridtolerance="10"
   guidetolerance="10"
   inkscape:pageopacity="0"
   inkscape:pageshadow="2"
   inkscape:window-width="1920"
   inkscape:window-height="1053"
   id="namedview4431"
   showgrid="false"
   inkscape:zoom="2.8116964"
   inkscape:cx="247.50208"
   inkscape:cy="937.66519"
   inkscape:window-x="-9"
   inkscape:window-y="-9"
   inkscape:window-maximized="1"
   inkscape:current-layer="svg4425" />
<g
   id="Flower 2 (1) (1)"
   style="fill:#8f6eb0;fill-opacity:1">
<g
   id="Flower 2 (1) (1) (1)"
   style="fill:#8f6eb0;fill-opacity:1">
<path
   style="fill:#8f6eb0;fill-opacity:1"
   d="m 201.28,108.93131 c -0.0858,19.1194 9.15,36.04569 14.14,53.87169 -12.587,-10.252 -24.52132,-22.4946 -39.85,-28.346 -19.01458,-7.25842 -42.74639,-5.39933 -59.056,7.516 -14.84365,11.75446 -13.95361,35.2243 -3.542,49.442 22.28799,30.43562 48.07572,23.40183 79.04,25.265 -17.438,3.597 -35.7655,6.61863 -51.182,15.732 -18.50564,10.9395 -34.24191,25.37325 -30.5384,51.16745 2.72475,18.97737 23.68794,34.70542 41.5524,33.87955 35.21519,-1.62799 45.27223,-26.78696 64.045,-48.982 -5.572,20.53 -16.2321,41.79462 -10.489,63.457 5.29602,19.97605 20.11839,38.90934 46.187,35.227 23.22573,-3.28076 33.75876,-19.2 36.95561,-35.91888 4.57131,-23.90697 -5.41507,-46.17278 -13.94261,-68.62512 12.62,13.047 25.12507,27.25121 41.396,35.537 18.13834,9.23675 39.00251,11.76071 56.48108,0.72053 16.55343,-10.45582 21.77401,-39.62817 13.22222,-55.51583 -8.20149,-15.23686 -26.36422,-22.13184 -43.0853,-24.4787 -13.00473,-1.82526 -26.181,-2.104 -39.186,-3.841 20.618,-3.126 43.90827,-2.58517 60.82,-16.523 15.78128,-13.00617 24.94354,-32.73355 12.85751,-54.95052 -11.37778,-20.91505 -28.3636,-21.2766 -45.05854,-18.93671 -26.24757,3.67874 -41.01743,20.45512 -57.00797,37.11923 6.44,-18.557 11.46955,-38.63682 10.129,-58.429 C 283.82286,83.458998 274.96553,61.759514 243.71634,62.862286 212.88839,63.950193 201.38322,85.925511 201.28,108.93131 z"
   id="path4429"
   inkscape:connector-curvature="0"
   sodipodi:nodetypes="scssscssscssscsssscssscsss" />
</g>
</g>

</svg>